#VRML V2.0 utf8
# 3D model generated by easyeda2kicad.py (https://github.com/uPesy/easyeda2kicad.py)

Shape{
    appearance Appearance {
        material  Material 	{
            diffuseColor 1.0 1.0 1.0
            specularColor 0.8784313725490196 0.8784313725490196 0.8784313725490196
            ambientIntensity 1.0
            transparency 0.0
            shininess 0.5
        }
    }
    geometry IndexedFaceSet {
        ccw TRUE
        solid FALSE
        coord DEF co Coordinate {
            point [
                -0.8072 0.2373 0.0, -0.8107 0.2378 0.0, -0.7233 0.2378 0.0, -0.789 0.1648 0.0, -0.7895 0.1667 0.0, -0.7745 0.1773 0.0, -0.7611 0.2342 0.0, -0.7665 0.2307 0.0, -0.7709 0.2261 0.0, -0.7742 0.2203 0.0, -0.8191 0.1877 0.0, -0.7986 0.1877 0.0, -0.8236 0.1681 0.0, -0.7945 0.1708 0.0, -0.8186 0.1618 0.0, -0.8323 0.1646 0.0, -0.8332 0.1633 0.0, -0.8341 0.1626 0.0, -0.8 0.1586 0.0, -0.7831 0.1586 0.0, -0.7233 -0.5315 0.0, -0.726 0.2341 0.0, -0.726 0.2373 0.0, -0.7466 0.2373 0.0, -0.7548 0.2364 0.0, -0.8 0.1618 0.0, -0.8186 0.1586 0.0, -0.8382 0.1586 0.0, -1.063 -0.5315 0.0, -0.8382 0.1618 0.0, -1.063 0.2378 0.0, -0.8368 0.1618 0.0, -0.8204 0.1618 0.0, -0.8215 0.1618 0.0, -0.8239 0.1666 0.0, -0.8241 0.165 0.0, -0.7986 0.1618 0.0, -0.7942 0.1691 0.0, -0.798 0.1618 0.0, -0.7941 0.1673 0.0, -0.7768 0.2112 0.0, -0.7778 0.1995 0.0, -0.7768 0.1865 0.0, -0.8239 0.1638 0.0, -0.8223 0.162 0.0, -0.8229 0.1622 0.0, -0.7954 0.1627 0.0, -0.7958 0.1624 0.0, -0.795 0.1631 0.0, -0.7946 0.1639 0.0, -0.7943 0.1652 0.0, -0.7966 0.162 0.0, -0.7293 0.1618 0.0, -0.7305 0.1619 0.0, -0.726 0.1618 0.0, -0.7314 0.1621 0.0, -0.7321 0.1623 0.0, -0.7622 0.1623 0.0, -0.7565 0.16 0.0, -0.7477 0.1586 0.0, -0.7858 0.1619 0.0, -0.7869 0.1624 0.0, -0.8232 0.1624 0.0, -0.8234 0.1627 0.0, -0.8237 0.1631 0.0, -0.7675 0.1662 0.0, -0.7713 0.1708 0.0, -0.7831 0.1618 0.0, -0.7845 0.1618 0.0, -0.7878 0.163 0.0, -0.7885 0.1638 0.0, -0.7325 0.1627 0.0, -0.733 0.1631 0.0, -0.7332 0.1637 0.0, -0.7335 0.1647 0.0, -0.7335 0.1654 0.0, -0.7335 0.2304 0.0, -0.7334 0.2314 0.0, -0.7332 0.2322 0.0, -0.7329 0.2327 0.0, -0.7324 0.2332 0.0, -0.7319 0.2336 0.0, -0.731 0.2339 0.0, -0.7455 0.1586 0.0, -0.726 0.1586 0.0, -0.8351 0.1621 0.0, -0.8361 0.1618 0.0, -0.8313 0.1668 0.0, -0.8142 0.2378 0.0, -0.8141 0.2384 0.0, -1.063 1.1614 0.0, -0.7233 1.1614 0.0, -0.6959 0.1995 0.0, -0.6828 0.1995 0.0, -0.7044 0.1894 0.0, -0.6018 0.178 0.0, -0.5747 0.2373 0.0, -0.5747 0.2341 0.0, -0.6685 0.1586 0.0, -0.5118 -0.5315 0.0, -0.7155 0.1586 0.0, -0.7206 0.1769 0.0, -0.7044 0.1877 0.0, -0.687 0.1618 0.0, -0.699 0.1618 0.0, -0.7044 0.2111 0.0, -0.7044 0.2119 0.0, -0.6959 0.2028 0.0, -0.6829 0.1645 0.0, -0.6832 0.1637 0.0, -0.6585 0.182 0.0, -0.6712 0.2341 0.0, -0.6613 0.219 0.0, -0.6689 0.2341 0.0, -0.6573 0.2378 0.0, -0.6192 0.199 0.0, -0.6416 0.235 0.0, -0.6393 0.2351 0.0, -0.5678 0.1637 0.0, -0.5681 0.1632 0.0, -0.5685 0.1627 0.0, -0.5919 0.1636 0.0, -0.595 0.1658 0.0, -0.6828 0.1654 0.0, -0.6835 0.1632 0.0, -0.684 0.1627 0.0, -0.6843 0.1625 0.0, -0.6555 0.225 0.0, -0.6519 0.23 0.0, -0.6207 0.182 0.0, -0.6232 0.1737 0.0, -0.6585 0.2179 0.0, -0.7044 0.2146 0.0, -0.6828 0.2305 0.0, -0.6828 0.2028 0.0, -0.6689 0.2373 0.0, -0.7144 0.2373 0.0, -0.7195 0.2211 0.0, -0.729 0.2341 0.0, -0.7183 0.178 0.0, -0.7172 0.22 0.0, -0.5675 0.1645 0.0, -0.5884 0.1623 0.0, -0.5976 0.1687 0.0, -0.6004 0.1737 0.0, -0.553 0.2341 0.0, -0.553 0.2373 0.0, -0.5118 0.2378 0.0, -0.6585 0.1728 0.0, -0.6752 0.1647 0.0, -0.6613 0.1806 0.0, -0.6753 0.1654 0.0, -0.6753 0.2304 0.0, -0.685 0.1621 0.0, -0.6862 0.1618 0.0, -0.7038 0.1623 0.0, -0.7076 0.1637 0.0, -0.7111 0.1661 0.0, -0.7042 0.1925 0.0, -0.7035 0.1949 0.0, -0.7026 0.1967 0.0, -0.675 0.2323 0.0, -0.6728 0.2339 0.0, -0.6752 0.2314 0.0, -0.6389 0.1629 0.0, -0.657 0.1768 0.0, -0.6544 0.1717 0.0, -0.6192 0.1988 0.0, -0.6254 0.1696 0.0, -0.6278 0.1668 0.0, -0.6295 0.1655 0.0, -0.6327 0.1639 0.0, -0.6363 0.163 0.0, -0.684 0.2332 0.0, -0.6835 0.2327 0.0, -0.5703 0.234 0.0, -0.5677 0.2321 0.0, -0.5715 0.2341 0.0, -0.5675 0.2314 0.0, -0.5697 0.1621 0.0, -0.5708 0.1618 0.0, -0.5674 0.1654 0.0, -0.5716 0.1618 0.0, -0.5674 0.2304 0.0, -0.5839 0.1618 0.0, -0.6712 0.1618 0.0, -0.6724 0.1619 0.0, -0.7076 0.2146 0.0, -0.7076 0.1877 0.0, -0.7155 0.1715 0.0, -0.7124 0.1673 0.0, -0.6437 0.1635 0.0, -0.6474 0.165 0.0, -0.6509 0.1675 0.0, -0.649 0.2325 0.0, -0.6455 0.2342 0.0, -0.6353 0.2346 0.0, -0.6322 0.2334 0.0, -0.6294 0.2314 0.0, -0.6276 0.2296 0.0, -0.6245 0.2248 0.0, -0.6209 0.2147 0.0, -0.6831 0.232 0.0, -0.6829 0.2314 0.0, -0.7026 0.2338 0.0, -0.7 0.2341 0.0, -0.687 0.2341 0.0, -0.5688 0.1625 0.0, -0.6685 0.1618 0.0, -0.6547 0.1668 0.0, -0.6505 0.1627 0.0, -0.6465 0.1602 0.0, -0.6422 0.1589 0.0, -0.6265 0.1612 0.0, -0.6218 0.1642 0.0, -0.6732 0.1621 0.0, -0.6738 0.1623 0.0, -0.6743 0.1626 0.0, -0.7015 0.1978 0.0, -0.7004 0.1986 0.0, -0.6986 0.1992 0.0, -0.6747 0.2328 0.0, -0.6742 0.2333 0.0, -0.6737 0.2336 0.0, -0.7024 0.2051 0.0, -0.7033 0.2063 0.0, -0.704 0.2083 0.0, -0.6857 0.234 0.0, -0.6848 0.2336 0.0, -0.5694 0.2337 0.0, -0.5686 0.2332 0.0, -0.5681 0.2327 0.0, -0.6384 0.1586 0.0, -0.6318 0.1593 0.0, -0.5999 0.1586 0.0, -0.5526 0.1586 0.0, -0.5526 0.1618 0.0, -0.5558 0.1618 0.0, -0.5569 0.1619 0.0, -0.5599 0.1654 0.0, -0.5578 0.1621 0.0, -0.5598 0.1647 0.0, -0.615 0.2209 0.0, -0.6199 0.2288 0.0, -0.6747 0.1631 0.0, -0.675 0.1637 0.0, -0.7121 0.2278 0.0, -0.7084 0.2313 0.0, -0.7054 0.233 0.0, -0.6243 0.2332 0.0, -0.6291 0.2361 0.0, -0.6346 0.2378 0.0, -0.6981 0.2029 0.0, -0.7001 0.2035 0.0, -0.7014 0.2042 0.0, -0.5584 0.1623 0.0, -0.5589 0.1626 0.0, -0.5596 0.1637 0.0, -0.5593 0.1631 0.0, -0.5596 0.2323 0.0, -0.5574 0.2339 0.0, -0.5598 0.2314 0.0, -0.5558 0.2341 0.0, -0.5599 0.2304 0.0, -0.5592 0.2328 0.0, -0.5588 0.2333 0.0, -0.5582 0.2336 0.0, -0.6179 0.1684 0.0, -0.6146 0.174 0.0, -0.6041 0.1769 0.0, -0.6118 0.1836 0.0, -0.6106 0.1982 0.0, -0.6118 0.2109 0.0, -0.5118 1.1614 0.0, -0.6347 0.2379 0.0, -0.6402 0.2384 0.0, -0.6435 0.2382 0.0, -0.6571 0.2384 0.0, -0.6567 0.2378 0.0, -0.6567 0.2378 0.0, -0.6451 0.2378 0.0, -0.6467 0.2375 0.0, -0.6493 0.2366 0.0, -0.6521 0.2362 0.0, -0.6543 0.2364 0.0, -0.6553 0.2367 0.0, -0.656 0.2372 0.0, -1.1417 1.0433 3.189, -1.1417 1.1614 3.189, -1.8504 1.0433 3.189, -1.9685 1.1614 3.189, -1.8504 -0.7283 3.189, -1.9685 -0.8465 3.189, -1.4961 -0.7283 3.189, -1.378 -0.8465 3.189, -1.4961 -0.4134 3.189, -1.378 -0.5315 3.189, -1.1811 -0.4134 3.189, -1.1811 -0.5315 3.189
            ]
        }
        coordIndex [
            0,1,2,-1,3,4,5,-1,6,7,0,-1,0,7,8,-1,0,8,9,-1,10,11,12,-1,12,11,13,-1,12,13,14,-1,15,16,17,-1,18,19,20,-1,21,22,2,-1,2,22,23,-1,2,23,0,-1,0,23,24,-1,0,24,6,-1,25,18,26,-1,26,18,20,-1,26,20,27,-1,27,20,28,-1,27,28,29,-1,29,28,30,-1,29,30,31,-1,14,32,12,-1,12,32,33,-1,12,33,34,-1,34,33,35,-1,26,14,25,-1,25,14,13,-1,25,13,36,-1,36,13,37,-1,36,37,38,-1,38,37,39,-1,9,40,0,-1,0,40,41,-1,0,41,4,-1,4,41,42,-1,4,42,5,-1,35,33,43,-1,43,33,44,-1,43,44,45,-1,46,47,48,-1,48,47,49,-1,39,50,38,-1,38,50,49,-1,38,49,51,-1,51,49,47,-1,52,53,54,-1,54,53,55,-1,54,55,56,-1,57,58,20,-1,20,58,59,-1,60,61,5,-1,62,63,45,-1,45,63,64,-1,45,64,43,-1,57,20,65,-1,65,20,19,-1,65,19,66,-1,66,19,67,-1,66,67,5,-1,5,67,68,-1,5,68,60,-1,61,69,5,-1,5,69,70,-1,5,70,3,-1,56,71,54,-1,54,71,72,-1,54,72,73,-1,73,74,54,-1,54,74,75,-1,54,75,76,-1,76,77,54,-1,54,77,78,-1,54,78,79,-1,79,80,54,-1,54,80,81,-1,54,81,82,-1,59,83,20,-1,20,83,84,-1,20,84,54,-1,17,85,15,-1,15,85,86,-1,15,86,87,-1,87,86,31,-1,87,31,88,-1,88,31,30,-1,88,30,89,-1,89,30,90,-1,89,90,1,-1,1,90,91,-1,1,91,2,-1,92,93,94,-1,95,96,97,-1,98,99,100,-1,100,99,20,-1,100,20,101,-1,102,103,104,-1,105,106,107,-1,108,109,102,-1,110,111,112,-1,112,111,113,-1,112,113,114,-1,115,116,117,-1,118,119,120,-1,121,122,97,-1,94,93,102,-1,102,93,123,-1,102,123,108,-1,109,124,102,-1,102,124,125,-1,102,125,126,-1,115,127,128,-1,129,130,131,-1,132,133,106,-1,106,133,134,-1,106,134,107,-1,135,136,2,-1,2,136,137,-1,82,138,54,-1,54,138,21,-1,54,21,20,-1,20,21,2,-1,20,2,101,-1,101,2,137,-1,101,137,139,-1,139,137,140,-1,118,120,141,-1,121,97,142,-1,122,143,97,-1,97,143,144,-1,97,144,95,-1,145,146,147,-1,148,149,150,-1,150,149,151,-1,150,151,152,-1,126,153,102,-1,102,153,154,-1,102,154,103,-1,104,155,102,-1,102,155,156,-1,102,156,157,-1,94,158,92,-1,92,158,159,-1,92,159,160,-1,161,162,163,-1,163,162,111,-1,163,111,152,-1,152,111,110,-1,152,110,150,-1,112,131,110,-1,110,131,164,-1,110,164,165,-1,165,164,166,-1,127,115,131,-1,131,115,167,-1,131,167,129,-1,130,168,131,-1,131,168,169,-1,131,169,170,-1,170,171,131,-1,131,171,172,-1,131,172,164,-1,173,174,132,-1,175,176,177,-1,177,176,178,-1,179,180,181,-1,181,180,182,-1,181,182,183,-1,178,183,177,-1,177,183,182,-1,177,182,97,-1,97,182,184,-1,97,184,142,-1,148,185,186,-1,140,187,139,-1,139,187,188,-1,139,188,189,-1,189,188,102,-1,189,102,190,-1,190,102,157,-1,191,192,164,-1,164,192,193,-1,164,193,166,-1,128,194,115,-1,115,194,195,-1,115,195,116,-1,117,196,115,-1,115,196,197,-1,115,197,198,-1,198,199,115,-1,115,199,200,-1,115,200,201,-1,174,202,132,-1,132,202,203,-1,132,203,133,-1,204,205,132,-1,132,205,206,-1,141,120,181,-1,181,120,207,-1,181,207,179,-1,185,148,208,-1,208,148,209,-1,208,209,98,-1,98,209,210,-1,98,210,99,-1,99,210,211,-1,99,211,212,-1,99,213,214,-1,186,215,148,-1,148,215,216,-1,148,216,217,-1,160,218,92,-1,92,218,219,-1,92,219,220,-1,161,221,162,-1,162,221,222,-1,162,222,223,-1,224,225,226,-1,206,227,132,-1,132,227,228,-1,132,228,173,-1,175,229,176,-1,176,229,230,-1,176,230,231,-1,212,232,99,-1,99,232,233,-1,99,233,213,-1,214,234,99,-1,99,234,235,-1,99,235,147,-1,147,235,236,-1,147,236,145,-1,237,238,239,-1,239,238,240,-1,239,240,241,-1,242,243,96,-1,217,244,148,-1,148,244,245,-1,148,245,149,-1,140,246,187,-1,187,246,247,-1,187,247,132,-1,132,247,248,-1,132,248,204,-1,243,249,96,-1,96,249,250,-1,96,250,251,-1,107,252,105,-1,105,252,253,-1,105,253,226,-1,226,253,254,-1,226,254,224,-1,240,255,241,-1,241,255,256,-1,241,256,257,-1,257,256,258,-1,259,260,261,-1,261,260,262,-1,261,262,263,-1,263,262,145,-1,263,145,239,-1,239,145,236,-1,239,236,237,-1,259,264,260,-1,260,264,265,-1,260,265,266,-1,214,267,234,-1,234,267,268,-1,234,268,269,-1,269,268,270,-1,269,270,95,-1,95,270,271,-1,95,271,96,-1,96,271,272,-1,96,272,242,-1,146,96,147,-1,147,96,251,-1,147,251,273,-1,273,251,274,-1,273,274,91,-1,91,274,275,-1,91,275,276,-1,113,135,114,-1,114,135,2,-1,114,2,277,-1,277,2,91,-1,277,91,278,-1,278,91,276,-1,278,276,279,-1,279,276,280,-1,280,281,279,-1,279,281,282,-1,279,282,283,-1,283,284,279,-1,279,284,285,-1,279,285,286,-1,287,288,289,-1,289,288,290,-1,289,290,291,-1,291,290,292,-1,291,292,293,-1,293,292,294,-1,293,294,295,-1,295,294,296,-1,295,296,297,-1,297,296,298,-1,
        ]
    }
}
Shape{
    appearance Appearance {
        material  Material 	{
            diffuseColor 1.0 1.0 1.0
            specularColor 0.5019607843137255 0.5019607843137255 0.5019607843137255
            ambientIntensity 1.0
            transparency 0.0
            shininess 0.5
        }
    }
    geometry IndexedFaceSet {
        ccw TRUE
        solid FALSE
        coord DEF co Coordinate {
            point [
                1.9685 -0.5315 0.0, 1.9685 -0.5315 0.6299, 1.378 -0.5315 0.6299, -1.378 -0.5315 0.6299, -1.9685 -0.5315 0.6299, -1.9685 -0.5315 0.0, 1.378 -0.5315 3.189, 1.1811 -0.5315 2.0079, 1.1811 -0.5315 3.189, 0.689 -0.5315 1.2598, 0.689 -0.5315 2.0079, -0.689 -0.5315 1.2598, -0.689 -0.5315 2.0079, -1.1811 -0.5315 2.0079, -1.063 -0.5315 0.315, -1.2992 -0.5315 0.315, -1.2992 -0.5315 0.0, -1.378 -0.5315 3.189, -1.1811 -0.5315 3.189, -0.2756 -0.5315 0.315, -0.2756 -0.5315 0.0, 0.2756 -0.5315 0.0, 0.2756 -0.5315 0.315, 0.5118 -0.5315 0.315, -0.5118 -0.5315 0.315, -0.5118 -0.5315 0.0, -1.063 -0.5315 0.0, 0.5118 -0.5315 0.0, 1.063 -0.5315 0.0, 1.063 -0.5315 0.315, 1.2992 -0.5315 0.315, 1.2992 -0.5315 0.0
            ]
        }
        coordIndex [
            0,1,2,-1,3,4,5,-1,2,6,7,-1,7,6,8,-1,0,2,9,-1,9,2,7,-1,9,7,10,-1,11,12,13,-1,14,9,15,-1,15,9,11,-1,16,15,5,-1,5,15,11,-1,5,11,3,-1,3,11,13,-1,3,13,17,-1,17,13,18,-1,19,20,21,-1,22,23,9,-1,21,22,19,-1,19,22,9,-1,19,9,24,-1,24,9,14,-1,24,14,25,-1,25,14,26,-1,27,28,23,-1,23,28,29,-1,23,29,9,-1,9,29,30,-1,9,30,0,-1,0,30,31,-1,
        ]
    }
}
Shape{
    appearance Appearance {
        material  Material 	{
            diffuseColor 1.0 1.0 1.0
            specularColor 0.8784313725490196 0.8784313725490196 0.8784313725490196
            ambientIntensity 1.0
            transparency 0.0
            shininess 0.5
        }
    }
    geometry IndexedFaceSet {
        ccw TRUE
        solid FALSE
        coord DEF co Coordinate {
            point [
                1.1417 1.1614 2.4016, 1.1417 1.1614 3.189, 1.9685 1.1614 3.189, -1.9685 1.1614 3.189, -1.1417 1.1614 3.189, -1.9685 1.1614 0.0, -1.1417 1.1614 2.4016, 1.9685 1.1614 0.0, 1.2992 1.1614 0.0, 1.2992 1.1614 0.315, 1.063 1.1614 0.315, 0.2756 1.1614 0.315, 0.2756 1.1614 0.0, -0.2756 1.1614 0.0, -0.2756 1.1614 0.315, -0.5118 1.1614 0.315, 0.5118 1.1614 0.315, 0.5118 1.1614 0.0, 1.063 1.1614 0.0, -1.2992 1.1614 0.0, -1.2992 1.1614 0.315, -1.063 1.1614 0.315, -1.063 1.1614 0.0, -0.5118 1.1614 0.0, 1.9685 -0.5315 0.0, 1.2992 -0.5315 0.0, 1.063 -0.5315 0.0, 0.5118 -0.5315 0.0, 0.2756 -0.5315 0.0, -0.2756 -0.5315 0.0, -1.378 -0.8465 0.6299, -1.378 -0.8465 3.189, -1.9685 -0.8465 0.6299, -1.9685 -0.8465 3.189, 1.9685 -0.5315 0.6299, 1.9685 -0.8465 0.6299, 1.9685 -0.8465 3.189, -1.9685 -0.5315 0.6299, -1.9685 -0.5315 0.0, 1.378 -0.8465 0.6299, 1.378 -0.8465 3.189, 1.1417 1.0433 3.189, 1.8504 1.0433 3.189, 1.8504 -0.7283 3.189, 1.4961 -0.7283 3.189, 1.378 -0.5315 3.189, 1.4961 -0.4134 3.189, 1.1811 -0.5315 3.189, 1.1811 -0.4134 3.189, -1.2992 -0.5315 0.0
            ]
        }
        coordIndex [
            0,1,2,-1,3,4,5,-1,5,4,6,-1,7,8,9,-1,2,7,0,-1,0,7,9,-1,0,9,6,-1,6,9,10,-1,11,12,13,-1,14,15,6,-1,13,14,11,-1,11,14,6,-1,11,6,16,-1,16,6,10,-1,16,10,17,-1,17,10,18,-1,19,5,20,-1,20,5,6,-1,20,6,21,-1,21,6,15,-1,21,15,22,-1,22,15,23,-1,7,24,8,-1,8,24,25,-1,26,27,18,-1,18,27,17,-1,28,29,12,-1,12,29,13,-1,30,31,32,-1,32,31,33,-1,24,7,34,-1,34,7,2,-1,34,2,35,-1,35,2,36,-1,32,33,37,-1,37,33,3,-1,37,3,38,-1,38,3,5,-1,35,36,39,-1,39,36,40,-1,1,41,2,-1,2,41,42,-1,2,42,36,-1,36,42,43,-1,36,43,40,-1,40,43,44,-1,40,44,45,-1,45,44,46,-1,45,46,47,-1,47,46,48,-1,49,38,19,-1,19,38,5,-1,
        ]
    }
}
Shape{
    appearance Appearance {
        material  Material 	{
            diffuseColor 1.0 1.0 1.0
            specularColor 0.5019607843137255 0.5019607843137255 0.5019607843137255
            ambientIntensity 1.0
            transparency 0.0
            shininess 0.5
        }
    }
    geometry IndexedFaceSet {
        ccw TRUE
        solid FALSE
        coord DEF co Coordinate {
            point [
                -1.378 -0.5315 0.6299, -1.378 -0.5315 3.189, -1.378 -0.8465 0.6299, -1.378 -0.8465 3.189, 1.378 -0.8465 0.6299, 1.378 -0.8465 3.189, 1.378 -0.5315 0.6299, 1.378 -0.5315 3.189
            ]
        }
        coordIndex [
            0,1,2,-1,2,1,3,-1,4,5,6,-1,6,5,7,-1,
        ]
    }
}
Shape{
    appearance Appearance {
        material  Material 	{
            diffuseColor 1.0 1.0 1.0
            specularColor 0.8784313725490196 0.8784313725490196 0.8784313725490196
            ambientIntensity 1.0
            transparency 0.0
            shininess 0.5
        }
    }
    geometry IndexedFaceSet {
        ccw TRUE
        solid FALSE
        coord DEF co Coordinate {
            point [
                -1.4961 -0.7283 1.6142, -1.8504 -0.7283 1.6142, -1.4961 -0.7283 3.189, -1.8504 -0.7283 3.189, -1.8504 1.0433 1.6142, -1.8504 1.0433 3.189, -1.1417 1.0433 3.189, -1.1417 1.0433 2.4016, 1.1417 1.0433 2.4016, 1.8504 1.0433 1.6142, 1.1417 1.0433 3.189, 1.8504 1.0433 3.189, 1.8504 -0.7283 1.6142, 1.8504 -0.7283 3.189, 1.4961 -0.7283 1.6142, 1.4961 -0.7283 3.189, 1.4961 -0.4134 1.6142, 1.4961 -0.4134 3.189, 1.1811 -0.4134 3.189, 1.1811 -0.4134 2.0079, -1.1811 -0.4134 2.0079, -1.4961 -0.4134 1.6142, -1.1811 -0.4134 3.189, -1.4961 -0.4134 3.189, 0.4932 0.2756 1.6142, 0.2963 0.2756 1.6142, 0.4932 0.3937 1.6142, 1.0837 0.2756 1.6142, 1.2806 0.2756 1.6142, 1.2806 0.3937 1.6142, 1.0837 0.3937 1.6142, -0.2942 0.2756 1.6142, -0.4911 0.2756 1.6142, -1.0816 0.3937 1.6142, -0.2942 0.3937 1.6142, -0.4911 0.3937 1.6142, -1.0816 0.2756 1.6142, -1.2785 0.2756 1.6142, -1.2785 0.3937 1.6142, 0.2963 0.3937 1.6142, 1.9685 -0.8465 0.6299, 1.378 -0.8465 0.6299, 1.9685 -0.5315 0.6299, 1.378 -0.5315 0.6299, -1.9685 -0.5315 0.6299, -1.378 -0.5315 0.6299, -1.9685 -0.8465 0.6299, -1.378 -0.8465 0.6299, -1.063 1.1614 0.315, -1.063 0.5118 0.1575, -1.2992 1.1614 0.315, -1.2992 0.5118 0.1575, -1.2785 0.3937 0.1575, -1.2785 0.2756 0.1575, -1.0816 0.3937 0.1575, -1.0816 0.2756 0.1575, -1.063 0.1181 0.1575, -1.2992 0.1181 0.1575, -1.063 -0.5315 0.315, -1.2992 -0.5315 0.315, -1.063 1.1614 0.0, -1.063 -0.5315 0.0, -1.2992 -0.5315 0.0, -1.2992 1.1614 0.0, -0.2756 1.1614 0.315, -0.2756 0.5118 0.1575, -0.5118 1.1614 0.315, -0.5118 0.5118 0.1575, -0.4911 0.3937 0.1575, -0.4911 0.2756 0.1575, -0.2942 0.3937 0.1575, -0.2942 0.2756 0.1575, -0.2756 0.1181 0.1575, -0.5118 0.1181 0.1575, -0.2756 -0.5315 0.315, -0.5118 -0.5315 0.315, -0.2756 1.1614 0.0, -0.2756 -0.5315 0.0, -0.5118 -0.5315 0.0, -0.5118 1.1614 0.0, 0.5118 1.1614 0.315, 0.5118 0.5118 0.1575, 0.2756 1.1614 0.315, 0.2756 0.5118 0.1575, 0.2963 0.3937 0.1575, 0.2963 0.2756 0.1575, 0.4932 0.3937 0.1575, 0.4932 0.2756 0.1575, 0.5118 0.1181 0.1575, 0.2756 0.1181 0.1575, 0.5118 -0.5315 0.315, 0.2756 -0.5315 0.315, 0.5118 1.1614 0.0, 0.5118 -0.5315 0.0, 0.2756 -0.5315 0.0, 0.2756 1.1614 0.0, 1.2992 1.1614 0.315, 1.2992 0.5118 0.1575, 1.063 1.1614 0.315, 1.063 0.5118 0.1575, 1.0837 0.3937 0.1575, 1.0837 0.2756 0.1575, 1.2806 0.3937 0.1575, 1.2806 0.2756 0.1575, 1.2992 0.1181 0.1575, 1.063 0.1181 0.1575, 1.2992 -0.5315 0.315, 1.063 -0.5315 0.315, 1.2992 1.1614 0.0, 1.2992 -0.5315 0.0, 1.063 -0.5315 0.0, 1.063 1.1614 0.0, -1.1811 -0.5315 2.0079, -1.1811 -0.5315 3.189, 1.1811 -0.5315 2.0079, 1.1811 -0.5315 3.189, 0.689 -0.5315 2.0079, -0.689 -0.5315 2.0079, 0.689 -0.8465 1.3386, -0.689 -0.8465 1.3386, 0.689 -0.8465 1.2598, -0.689 -0.8465 1.2598, 0.689 -0.5315 1.2598, -0.689 -0.5315 1.2598, -1.1417 1.1614 2.4016, -1.1417 1.1614 3.189, 1.1417 1.1614 2.4016, 1.1417 1.1614 3.189
            ]
        }
        coordIndex [
            0,1,2,-1,2,1,3,-1,1,4,3,-1,3,4,5,-1,6,5,7,-1,7,5,4,-1,7,4,8,-1,8,4,9,-1,8,9,10,-1,10,9,11,-1,9,12,11,-1,11,12,13,-1,12,14,13,-1,13,14,15,-1,14,16,15,-1,15,16,17,-1,18,17,19,-1,19,17,16,-1,19,16,20,-1,20,16,21,-1,20,21,22,-1,22,21,23,-1,21,0,23,-1,23,0,2,-1,4,1,21,-1,21,1,0,-1,16,14,12,-1,16,24,25,-1,26,24,27,-1,27,24,16,-1,27,16,28,-1,28,16,12,-1,28,12,29,-1,29,12,9,-1,29,9,30,-1,31,32,21,-1,33,9,4,-1,34,9,35,-1,35,9,33,-1,35,33,32,-1,32,33,36,-1,32,36,21,-1,21,36,37,-1,21,37,4,-1,4,37,38,-1,4,38,33,-1,21,16,31,-1,31,16,25,-1,31,25,34,-1,34,25,39,-1,34,39,9,-1,9,39,26,-1,9,26,30,-1,30,26,27,-1,40,41,42,-1,42,41,43,-1,44,45,46,-1,46,45,47,-1,48,49,50,-1,50,49,51,-1,51,52,53,-1,52,51,54,-1,54,51,49,-1,54,49,55,-1,55,49,56,-1,55,56,53,-1,53,56,57,-1,53,57,51,-1,56,58,57,-1,57,58,59,-1,49,48,60,-1,49,60,56,-1,56,60,61,-1,56,61,58,-1,57,59,62,-1,57,62,51,-1,51,62,63,-1,51,63,50,-1,64,65,66,-1,66,65,67,-1,67,68,69,-1,68,67,70,-1,70,67,65,-1,70,65,71,-1,71,65,72,-1,71,72,69,-1,69,72,73,-1,69,73,67,-1,72,74,73,-1,73,74,75,-1,65,64,76,-1,65,76,72,-1,72,76,77,-1,72,77,74,-1,73,75,78,-1,73,78,67,-1,67,78,79,-1,67,79,66,-1,80,81,82,-1,82,81,83,-1,83,84,85,-1,84,83,86,-1,86,83,81,-1,86,81,87,-1,87,81,88,-1,87,88,85,-1,85,88,89,-1,85,89,83,-1,88,90,89,-1,89,90,91,-1,81,80,92,-1,81,92,88,-1,88,92,93,-1,88,93,90,-1,89,91,94,-1,89,94,83,-1,83,94,95,-1,83,95,82,-1,96,97,98,-1,98,97,99,-1,99,100,101,-1,100,99,102,-1,102,99,97,-1,102,97,103,-1,103,97,104,-1,103,104,101,-1,101,104,105,-1,101,105,99,-1,104,106,105,-1,105,106,107,-1,97,96,108,-1,97,108,104,-1,104,108,109,-1,104,109,106,-1,105,107,110,-1,105,110,99,-1,99,110,111,-1,99,111,98,-1,112,20,113,-1,113,20,22,-1,19,114,18,-1,18,114,115,-1,116,114,19,-1,116,19,117,-1,117,19,20,-1,117,20,112,-1,118,116,119,-1,119,116,117,-1,120,118,121,-1,121,118,119,-1,122,120,123,-1,123,120,121,-1,118,120,116,-1,116,120,122,-1,121,119,123,-1,123,119,117,-1,7,124,6,-1,6,124,125,-1,126,8,127,-1,127,8,10,-1,8,126,7,-1,7,126,124,-1,
        ]
    }
}
Shape{
    appearance Appearance {
        material  Material 	{
            diffuseColor 0.6666666666666666 0.6941176470588235 0.7647058823529411
            specularColor 0.3333333333333333 0.34901960784313724 0.3843137254901961
            ambientIntensity 0.694
            transparency 0.0
            shininess 0.5
        }
    }
    geometry IndexedFaceSet {
        ccw TRUE
        solid FALSE
        coord DEF co Coordinate {
            point [
                1.1231 0.315 -1.378, 1.1231 0.3543 -1.378, 1.2412 0.315 -1.378, 1.2412 0.3543 -1.378, 1.0837 0.3937 -1.3386, 1.0837 0.3937 0.1575, 1.2806 0.3937 -1.3386, 1.2806 0.3937 0.1575, 1.2806 0.2756 -1.3386, 1.2806 0.2756 0.1575, 1.0837 0.2756 -1.3386, 1.0837 0.2756 0.1575, 1.0837 0.3937 2.126, 1.0837 0.3937 1.6142, 1.0837 0.2756 2.126, 1.0837 0.2756 1.6142, 1.2806 0.2756 2.126, 1.2806 0.2756 1.6142, 1.2806 0.3937 2.126, 1.2806 0.3937 1.6142, 1.1231 0.3543 2.1654, 1.1231 0.315 2.1654, 1.2412 0.3543 2.1654, 1.2412 0.315 2.1654
            ]
        }
        coordIndex [
            0,1,2,-1,2,1,3,-1,4,5,6,-1,6,5,7,-1,6,7,8,-1,8,7,9,-1,8,9,10,-1,10,9,11,-1,10,11,4,-1,4,11,5,-1,12,13,14,-1,14,13,15,-1,14,15,16,-1,16,15,17,-1,16,17,18,-1,18,17,19,-1,18,19,12,-1,12,19,13,-1,20,21,22,-1,22,21,23,-1,
        ]
    }
}
Shape{
    appearance Appearance {
        material  Material 	{
            diffuseColor 1.0 1.0 1.0
            specularColor 0.8784313725490196 0.8784313725490196 0.8784313725490196
            ambientIntensity 1.0
            transparency 0.0
            shininess 0.5
        }
    }
    geometry IndexedFaceSet {
        ccw TRUE
        solid FALSE
        coord DEF co Coordinate {
            point [
                1.1231 0.315 2.1654, 1.0837 0.2756 2.126, 1.2412 0.315 2.1654, 1.2806 0.2756 2.126, 1.1231 0.3543 2.1654, 1.0837 0.3937 2.126, 1.2806 0.3937 2.126, 1.2412 0.3543 2.1654, 1.2806 0.3937 -1.3386, 1.2412 0.3543 -1.378, 1.0837 0.3937 -1.3386, 1.1231 0.3543 -1.378, 1.2806 0.2756 -1.3386, 1.2412 0.315 -1.378, 1.1231 0.315 -1.378, 1.0837 0.2756 -1.3386
            ]
        }
        coordIndex [
            0,1,2,-1,2,1,3,-1,4,5,0,-1,0,5,1,-1,6,7,3,-1,3,7,2,-1,7,6,4,-1,4,6,5,-1,8,9,10,-1,10,9,11,-1,12,13,8,-1,8,13,9,-1,14,15,11,-1,11,15,10,-1,15,14,12,-1,12,14,13,-1,
        ]
    }
}
Shape{
    appearance Appearance {
        material  Material 	{
            diffuseColor 0.6666666666666666 0.6941176470588235 0.7647058823529411
            specularColor 0.3333333333333333 0.34901960784313724 0.3843137254901961
            ambientIntensity 0.694
            transparency 0.0
            shininess 0.5
        }
    }
    geometry IndexedFaceSet {
        ccw TRUE
        solid FALSE
        coord DEF co Coordinate {
            point [
                0.3357 0.315 -1.378, 0.3357 0.3543 -1.378, 0.4538 0.315 -1.378, 0.4538 0.3543 -1.378, 0.2963 0.3937 -1.3386, 0.2963 0.3937 0.1575, 0.4932 0.3937 -1.3386, 0.4932 0.3937 0.1575, 0.4932 0.2756 -1.3386, 0.4932 0.2756 0.1575, 0.2963 0.2756 -1.3386, 0.2963 0.2756 0.1575, 0.2963 0.3937 2.126, 0.2963 0.3937 1.6142, 0.2963 0.2756 2.126, 0.2963 0.2756 1.6142, 0.4932 0.2756 2.126, 0.4932 0.2756 1.6142, 0.4932 0.3937 2.126, 0.4932 0.3937 1.6142, 0.3357 0.3543 2.1654, 0.3357 0.315 2.1654, 0.4538 0.3543 2.1654, 0.4538 0.315 2.1654, -0.4517 0.315 -1.378, -0.4517 0.3543 -1.378, -0.3336 0.315 -1.378, -0.3336 0.3543 -1.378, -0.4911 0.3937 -1.3386, -0.4911 0.3937 0.1575, -0.2942 0.3937 -1.3386, -0.2942 0.3937 0.1575, -0.2942 0.2756 -1.3386, -0.2942 0.2756 0.1575, -0.4911 0.2756 -1.3386, -0.4911 0.2756 0.1575, -0.4911 0.3937 2.126, -0.4911 0.3937 1.6142, -0.4911 0.2756 2.126, -0.4911 0.2756 1.6142, -0.2942 0.2756 2.126, -0.2942 0.2756 1.6142, -0.2942 0.3937 2.126, -0.2942 0.3937 1.6142, -0.4517 0.3543 2.1654, -0.4517 0.315 2.1654, -0.3336 0.3543 2.1654, -0.3336 0.315 2.1654, -1.2391 0.315 -1.378, -1.2391 0.3543 -1.378, -1.121 0.315 -1.378, -1.121 0.3543 -1.378, -1.2785 0.3937 -1.3386, -1.2785 0.3937 0.1575, -1.0816 0.3937 -1.3386, -1.0816 0.3937 0.1575, -1.0816 0.2756 -1.3386, -1.0816 0.2756 0.1575, -1.2785 0.2756 -1.3386, -1.2785 0.2756 0.1575, -1.2785 0.3937 2.126, -1.2785 0.3937 1.6142, -1.2785 0.2756 2.126, -1.2785 0.2756 1.6142, -1.0816 0.2756 2.126, -1.0816 0.2756 1.6142, -1.0816 0.3937 2.126, -1.0816 0.3937 1.6142, -1.2391 0.3543 2.1654, -1.2391 0.315 2.1654, -1.121 0.3543 2.1654, -1.121 0.315 2.1654
            ]
        }
        coordIndex [
            0,1,2,-1,2,1,3,-1,4,5,6,-1,6,5,7,-1,6,7,8,-1,8,7,9,-1,8,9,10,-1,10,9,11,-1,10,11,4,-1,4,11,5,-1,12,13,14,-1,14,13,15,-1,14,15,16,-1,16,15,17,-1,16,17,18,-1,18,17,19,-1,18,19,12,-1,12,19,13,-1,20,21,22,-1,22,21,23,-1,24,25,26,-1,26,25,27,-1,28,29,30,-1,30,29,31,-1,30,31,32,-1,32,31,33,-1,32,33,34,-1,34,33,35,-1,34,35,28,-1,28,35,29,-1,36,37,38,-1,38,37,39,-1,38,39,40,-1,40,39,41,-1,40,41,42,-1,42,41,43,-1,42,43,36,-1,36,43,37,-1,44,45,46,-1,46,45,47,-1,48,49,50,-1,50,49,51,-1,52,53,54,-1,54,53,55,-1,54,55,56,-1,56,55,57,-1,56,57,58,-1,58,57,59,-1,58,59,52,-1,52,59,53,-1,60,61,62,-1,62,61,63,-1,62,63,64,-1,64,63,65,-1,64,65,66,-1,66,65,67,-1,66,67,60,-1,60,67,61,-1,68,69,70,-1,70,69,71,-1,
        ]
    }
}
Shape{
    appearance Appearance {
        material  Material 	{
            diffuseColor 1.0 1.0 1.0
            specularColor 0.8784313725490196 0.8784313725490196 0.8784313725490196
            ambientIntensity 1.0
            transparency 0.0
            shininess 0.5
        }
    }
    geometry IndexedFaceSet {
        ccw TRUE
        solid FALSE
        coord DEF co Coordinate {
            point [
                0.3357 0.315 2.1654, 0.2963 0.2756 2.126, 0.4538 0.315 2.1654, 0.4932 0.2756 2.126, 0.3357 0.3543 2.1654, 0.2963 0.3937 2.126, 0.4932 0.3937 2.126, 0.4538 0.3543 2.1654, 0.4932 0.3937 -1.3386, 0.4538 0.3543 -1.378, 0.2963 0.3937 -1.3386, 0.3357 0.3543 -1.378, 0.4932 0.2756 -1.3386, 0.4538 0.315 -1.378, 0.3357 0.315 -1.378, 0.2963 0.2756 -1.3386, -0.4517 0.315 2.1654, -0.4911 0.2756 2.126, -0.3336 0.315 2.1654, -0.2942 0.2756 2.126, -0.4517 0.3543 2.1654, -0.4911 0.3937 2.126, -0.2942 0.3937 2.126, -0.3336 0.3543 2.1654, -0.2942 0.3937 -1.3386, -0.3336 0.3543 -1.378, -0.4911 0.3937 -1.3386, -0.4517 0.3543 -1.378, -0.2942 0.2756 -1.3386, -0.3336 0.315 -1.378, -0.4517 0.315 -1.378, -0.4911 0.2756 -1.3386, -1.2391 0.315 2.1654, -1.2785 0.2756 2.126, -1.121 0.315 2.1654, -1.0816 0.2756 2.126, -1.2391 0.3543 2.1654, -1.2785 0.3937 2.126, -1.0816 0.3937 2.126, -1.121 0.3543 2.1654, -1.0816 0.3937 -1.3386, -1.121 0.3543 -1.378, -1.2785 0.3937 -1.3386, -1.2391 0.3543 -1.378, -1.0816 0.2756 -1.3386, -1.121 0.315 -1.378, -1.2391 0.315 -1.378, -1.2785 0.2756 -1.3386, -0.5674 0.2304 0.0039, -0.5674 0.1654 0.0039, -0.5674 0.2304 0.0, -0.5674 0.1654 0.0, -0.5716 0.1618 0.0039, -0.5716 0.1618 0.0, -0.5708 0.1618 0.0, -0.5708 0.1618 0.0039, -0.5697 0.1621 0.0, -0.5697 0.1621 0.0039, -0.5688 0.1625 0.0, -0.5688 0.1625 0.0039, -0.5685 0.1627 0.0, -0.5685 0.1627 0.0039, -0.5681 0.1632 0.0, -0.5681 0.1632 0.0039, -0.5678 0.1637 0.0, -0.5678 0.1637 0.0039, -0.5675 0.1645 0.0, -0.5675 0.1645 0.0039, -0.5839 0.1618 0.0039, -0.5839 0.1618 0.0, -0.6018 0.178 0.0039, -0.6018 0.178 0.0, -0.6004 0.1737 0.0, -0.6004 0.1737 0.0039, -0.5976 0.1687 0.0, -0.5976 0.1687 0.0039, -0.595 0.1658 0.0, -0.595 0.1658 0.0039, -0.5919 0.1636 0.0, -0.5919 0.1636 0.0039, -0.5884 0.1623 0.0, -0.5884 0.1623 0.0039, -0.6041 0.1769 0.0039, -0.6041 0.1769 0.0, -0.5999 0.1586 0.0039, -0.5999 0.1586 0.0, -0.5526 0.1586 0.0039, -0.5526 0.1586 0.0, -0.5526 0.1618 0.0039, -0.5526 0.1618 0.0, -0.5558 0.1618 0.0039, -0.5558 0.1618 0.0, -0.5599 0.1654 0.0039, -0.5599 0.1654 0.0, -0.5598 0.1647 0.0, -0.5598 0.1647 0.0039, -0.5596 0.1637 0.0, -0.5596 0.1637 0.0039, -0.5593 0.1631 0.0, -0.5593 0.1631 0.0039, -0.5589 0.1626 0.0, -0.5589 0.1626 0.0039, -0.5584 0.1623 0.0, -0.5584 0.1623 0.0039, -0.5578 0.1621 0.0, -0.5578 0.1621 0.0039, -0.5569 0.1619 0.0, -0.5569 0.1619 0.0039, -0.5599 0.2304 0.0039, -0.5599 0.2304 0.0, -0.5558 0.2341 0.0039, -0.5558 0.2341 0.0, -0.5574 0.2339 0.0, -0.5574 0.2339 0.0039, -0.5582 0.2336 0.0, -0.5582 0.2336 0.0039, -0.5588 0.2333 0.0, -0.5588 0.2333 0.0039, -0.5592 0.2328 0.0, -0.5592 0.2328 0.0039, -0.5596 0.2323 0.0, -0.5596 0.2323 0.0039, -0.5598 0.2314 0.0, -0.5598 0.2314 0.0039, -0.553 0.2341 0.0039, -0.553 0.2341 0.0, -0.553 0.2373 0.0039, -0.553 0.2373 0.0, -0.5747 0.2373 0.0039, -0.5747 0.2373 0.0, -0.5747 0.2341 0.0039, -0.5747 0.2341 0.0, -0.5715 0.2341 0.0039, -0.5715 0.2341 0.0, -0.5675 0.2314 0.0, -0.5675 0.2314 0.0039, -0.5677 0.2321 0.0, -0.5677 0.2321 0.0039, -0.5681 0.2327 0.0, -0.5681 0.2327 0.0039, -0.5686 0.2332 0.0, -0.5686 0.2332 0.0039, -0.5694 0.2337 0.0, -0.5694 0.2337 0.0039, -0.5703 0.234 0.0, -0.5703 0.234 0.0039, -0.6384 0.1586 0.0039, -0.6384 0.1586 0.0, -0.6422 0.1589 0.0, -0.6422 0.1589 0.0039, -0.6465 0.1602 0.0, -0.6465 0.1602 0.0039, -0.6505 0.1627 0.0, -0.6505 0.1627 0.0039, -0.6547 0.1668 0.0, -0.6547 0.1668 0.0039, -0.6585 0.1728 0.0, -0.6585 0.1728 0.0039, -0.6613 0.1806 0.0, -0.6613 0.1806 0.0039, -0.6106 0.1982 0.0039, -0.6106 0.1982 0.0, -0.6118 0.1836 0.0, -0.6118 0.1836 0.0039, -0.6146 0.174 0.0, -0.6146 0.174 0.0039, -0.6179 0.1684 0.0, -0.6179 0.1684 0.0039, -0.6218 0.1642 0.0, -0.6218 0.1642 0.0039, -0.6265 0.1612 0.0, -0.6265 0.1612 0.0039, -0.6318 0.1593 0.0, -0.6318 0.1593 0.0039, -0.6402 0.2384 0.0039, -0.6402 0.2384 0.0, -0.6347 0.2379 0.0, -0.6347 0.2379 0.0039, -0.6346 0.2378 0.0, -0.6291 0.2361 0.0039, -0.6291 0.2361 0.0, -0.6243 0.2332 0.0, -0.6243 0.2332 0.0039, -0.6199 0.2288 0.0, -0.6199 0.2288 0.0039, -0.615 0.2209 0.0, -0.615 0.2209 0.0039, -0.6118 0.2109 0.0, -0.6118 0.2109 0.0039, -0.6435 0.2382 0.0039, -0.6467 0.2375 0.0039, -0.6467 0.2375 0.0, -0.6451 0.2378 0.0, -0.6435 0.2382 0.0, -0.6521 0.2362 0.0039, -0.6521 0.2362 0.0, -0.6493 0.2366 0.0, -0.6493 0.2366 0.0039, -0.6571 0.2384 0.0039, -0.6571 0.2384 0.0, -0.6567 0.2378 0.0, -0.6567 0.2378 0.0, -0.656 0.2372 0.0039, -0.6567 0.2378 0.0039, -0.656 0.2372 0.0, -0.6553 0.2367 0.0, -0.6553 0.2367 0.0039, -0.6543 0.2364 0.0, -0.6543 0.2364 0.0039, -0.6573 0.2378 0.0, -0.6613 0.219 0.0039, -0.6613 0.219 0.0, -0.6585 0.2179 0.0039, -0.6585 0.2179 0.0, -0.6393 0.2351 0.0039, -0.6393 0.2351 0.0, -0.6416 0.235 0.0, -0.6416 0.235 0.0039, -0.6455 0.2342 0.0, -0.6455 0.2342 0.0039, -0.649 0.2325 0.0, -0.649 0.2325 0.0039, -0.6519 0.23 0.0, -0.6519 0.23 0.0039, -0.6555 0.225 0.0, -0.6555 0.225 0.0039, -0.6192 0.1988 0.0039, -0.6192 0.1988 0.0, -0.6192 0.199 0.0, -0.6192 0.199 0.0039, -0.6209 0.2147 0.0, -0.6209 0.2147 0.0039, -0.6245 0.2248 0.0, -0.6245 0.2248 0.0039, -0.6276 0.2296 0.0, -0.6276 0.2296 0.0039, -0.6294 0.2314 0.0, -0.6294 0.2314 0.0039, -0.6322 0.2334 0.0, -0.6322 0.2334 0.0039, -0.6353 0.2346 0.0, -0.6353 0.2346 0.0039, -0.6389 0.1629 0.0039, -0.6389 0.1629 0.0, -0.6363 0.163 0.0, -0.6363 0.163 0.0039, -0.6327 0.1639 0.0, -0.6327 0.1639 0.0039, -0.6295 0.1655 0.0, -0.6295 0.1655 0.0039, -0.6278 0.1668 0.0, -0.6278 0.1668 0.0039, -0.6254 0.1696 0.0, -0.6254 0.1696 0.0039, -0.6232 0.1737 0.0, -0.6232 0.1737 0.0039, -0.6207 0.182 0.0, -0.6207 0.182 0.0039, -0.6585 0.182 0.0039, -0.6585 0.182 0.0, -0.657 0.1768 0.0, -0.657 0.1768 0.0039, -0.6544 0.1717 0.0, -0.6544 0.1717 0.0039, -0.6509 0.1675 0.0, -0.6509 0.1675 0.0039, -0.6474 0.165 0.0, -0.6474 0.165 0.0039, -0.6437 0.1635 0.0, -0.6437 0.1635 0.0039, -0.6712 0.2341 0.0039, -0.6689 0.2341 0.0039, -0.6712 0.2341 0.0, -0.6689 0.2341 0.0, -0.6689 0.2373 0.0039, -0.6689 0.2373 0.0, -0.7144 0.2373 0.0039, -0.7144 0.2373 0.0, -0.7195 0.2211 0.0039, -0.7195 0.2211 0.0, -0.7172 0.22 0.0039, -0.7172 0.22 0.0, -0.7 0.2341 0.0039, -0.7 0.2341 0.0, -0.7026 0.2338 0.0, -0.7026 0.2338 0.0039, -0.7054 0.233 0.0, -0.7054 0.233 0.0039, -0.7084 0.2313 0.0, -0.7084 0.2313 0.0039, -0.7121 0.2278 0.0, -0.7121 0.2278 0.0039, -0.687 0.2341 0.0039, -0.687 0.2341 0.0, -0.6828 0.2305 0.0039, -0.6828 0.2305 0.0, -0.6829 0.2314 0.0, -0.6829 0.2314 0.0039, -0.6831 0.232 0.0, -0.6831 0.232 0.0039, -0.6835 0.2327 0.0, -0.6835 0.2327 0.0039, -0.684 0.2332 0.0, -0.684 0.2332 0.0039, -0.6848 0.2336 0.0, -0.6848 0.2336 0.0039, -0.6857 0.234 0.0, -0.6857 0.234 0.0039, -0.6828 0.2028 0.0039, -0.6828 0.2028 0.0, -0.6959 0.2028 0.0039, -0.6959 0.2028 0.0, -0.7044 0.2119 0.0039, -0.7044 0.2119 0.0, -0.7044 0.2111 0.0, -0.7044 0.2111 0.0039, -0.704 0.2083 0.0, -0.704 0.2083 0.0039, -0.7033 0.2063 0.0, -0.7033 0.2063 0.0039, -0.7024 0.2051 0.0, -0.7024 0.2051 0.0039, -0.7014 0.2042 0.0, -0.7014 0.2042 0.0039, -0.7001 0.2035 0.0, -0.7001 0.2035 0.0039, -0.6981 0.2029 0.0, -0.6981 0.2029 0.0039, -0.7044 0.2146 0.0039, -0.7044 0.2146 0.0, -0.7076 0.2146 0.0039, -0.7076 0.2146 0.0, -0.7076 0.1877 0.0039, -0.7076 0.1877 0.0, -0.7044 0.1877 0.0039, -0.7044 0.1877 0.0, -0.7044 0.1894 0.0039, -0.7044 0.1894 0.0, -0.6959 0.1995 0.0039, -0.6959 0.1995 0.0, -0.6986 0.1992 0.0, -0.6986 0.1992 0.0039, -0.7004 0.1986 0.0, -0.7004 0.1986 0.0039, -0.7015 0.1978 0.0, -0.7015 0.1978 0.0039, -0.7026 0.1967 0.0, -0.7026 0.1967 0.0039, -0.7035 0.1949 0.0, -0.7035 0.1949 0.0039, -0.7042 0.1925 0.0, -0.7042 0.1925 0.0039, -0.6828 0.1995 0.0039, -0.6828 0.1995 0.0, -0.6828 0.1654 0.0039, -0.6828 0.1654 0.0, -0.687 0.1618 0.0039, -0.687 0.1618 0.0, -0.6862 0.1618 0.0, -0.6862 0.1618 0.0039, -0.685 0.1621 0.0, -0.685 0.1621 0.0039, -0.6843 0.1625 0.0, -0.6843 0.1625 0.0039, -0.684 0.1627 0.0, -0.684 0.1627 0.0039, -0.6835 0.1632 0.0, -0.6835 0.1632 0.0039, -0.6832 0.1637 0.0, -0.6832 0.1637 0.0039, -0.6829 0.1645 0.0, -0.6829 0.1645 0.0039, -0.699 0.1618 0.0039, -0.699 0.1618 0.0, -0.7183 0.178 0.0039, -0.7183 0.178 0.0, -0.7155 0.1715 0.0, -0.7155 0.1715 0.0039, -0.7124 0.1673 0.0, -0.7124 0.1673 0.0039, -0.7111 0.1661 0.0, -0.7111 0.1661 0.0039, -0.7076 0.1637 0.0, -0.7076 0.1637 0.0039, -0.7038 0.1623 0.0, -0.7038 0.1623 0.0039, -0.7206 0.1769 0.0039, -0.7206 0.1769 0.0, -0.7155 0.1586 0.0039, -0.7155 0.1586 0.0, -0.6685 0.1586 0.0039, -0.6685 0.1586 0.0, -0.6685 0.1618 0.0039, -0.6685 0.1618 0.0, -0.6712 0.1618 0.0039, -0.6712 0.1618 0.0, -0.6753 0.1654 0.0039, -0.6753 0.1654 0.0, -0.6752 0.1647 0.0, -0.6752 0.1647 0.0039, -0.675 0.1637 0.0, -0.675 0.1637 0.0039, -0.6747 0.1631 0.0, -0.6747 0.1631 0.0039, -0.6743 0.1626 0.0, -0.6743 0.1626 0.0039, -0.6738 0.1623 0.0, -0.6738 0.1623 0.0039, -0.6732 0.1621 0.0, -0.6732 0.1621 0.0039, -0.6724 0.1619 0.0, -0.6724 0.1619 0.0039, -0.6753 0.2304 0.0039, -0.6753 0.2304 0.0, -0.6728 0.2339 0.0, -0.6728 0.2339 0.0039, -0.6737 0.2336 0.0, -0.6737 0.2336 0.0039, -0.6742 0.2333 0.0, -0.6742 0.2333 0.0039, -0.6747 0.2328 0.0, -0.6747 0.2328 0.0039, -0.675 0.2323 0.0, -0.675 0.2323 0.0039, -0.6752 0.2314 0.0, -0.6752 0.2314 0.0039, -0.7335 0.1654 0.0039, -0.7335 0.2304 0.0039, -0.7335 0.1654 0.0, -0.7335 0.2304 0.0, -0.729 0.2341 0.0039, -0.729 0.2341 0.0, -0.731 0.2339 0.0, -0.731 0.2339 0.0039, -0.7319 0.2336 0.0, -0.7319 0.2336 0.0039, -0.7324 0.2332 0.0, -0.7324 0.2332 0.0039, -0.7329 0.2327 0.0, -0.7329 0.2327 0.0039, -0.7332 0.2322 0.0, -0.7332 0.2322 0.0039, -0.7334 0.2314 0.0, -0.7334 0.2314 0.0039, -0.726 0.2341 0.0039, -0.726 0.2341 0.0, -0.726 0.2373 0.0039, -0.726 0.2373 0.0, -0.7466 0.2373 0.0039, -0.7466 0.2373 0.0, -0.7778 0.1995 0.0039, -0.7778 0.1995 0.0, -0.7768 0.2112 0.0, -0.7768 0.2112 0.0039, -0.7742 0.2203 0.0, -0.7742 0.2203 0.0039, -0.7709 0.2261 0.0, -0.7709 0.2261 0.0039, -0.7665 0.2307 0.0, -0.7665 0.2307 0.0039, -0.7611 0.2342 0.0, -0.7611 0.2342 0.0039, -0.7548 0.2364 0.0, -0.7548 0.2364 0.0039, -0.7455 0.1586 0.0039, -0.7455 0.1586 0.0, -0.7477 0.1586 0.0, -0.7477 0.1586 0.0039, -0.7565 0.16 0.0, -0.7565 0.16 0.0039, -0.7622 0.1623 0.0, -0.7622 0.1623 0.0039, -0.7675 0.1662 0.0, -0.7675 0.1662 0.0039, -0.7713 0.1708 0.0, -0.7713 0.1708 0.0039, -0.7745 0.1773 0.0, -0.7745 0.1773 0.0039, -0.7768 0.1865 0.0, -0.7768 0.1865 0.0039, -0.726 0.1586 0.0039, -0.726 0.1586 0.0, -0.726 0.1618 0.0039, -0.726 0.1618 0.0, -0.7293 0.1618 0.0039, -0.7293 0.1618 0.0, -0.7335 0.1647 0.0, -0.7335 0.1647 0.0039, -0.7332 0.1637 0.0, -0.7332 0.1637 0.0039, -0.733 0.1631 0.0, -0.733 0.1631 0.0039, -0.7325 0.1627 0.0, -0.7325 0.1627 0.0039, -0.7321 0.1623 0.0, -0.7321 0.1623 0.0039, -0.7314 0.1621 0.0, -0.7314 0.1621 0.0039, -0.7305 0.1619 0.0, -0.7305 0.1619 0.0039, -0.7681 0.2131 0.0039, -0.7691 0.1986 0.0039, -0.7681 0.184 0.0039, -0.766 0.1754 0.0039, -0.7635 0.1707 0.0039, -0.7603 0.1672 0.0039, -0.7433 0.1623 0.0039, -0.7423 0.1628 0.0039, -0.7418 0.1632 0.0039, -0.7415 0.1638 0.0039, -0.7412 0.1645 0.0039, -0.7414 0.2319 0.0039, -0.7418 0.2325 0.0039, -0.756 0.1642 0.0039, -0.7515 0.1624 0.0039, -0.746 0.1618 0.0039, -0.745 0.1618 0.0039, -0.7424 0.233 0.0039, -0.7432 0.2334 0.0039, -0.7447 0.2339 0.0039, -0.7473 0.2341 0.0039, -0.7528 0.2334 0.0039, -0.7657 0.2218 0.0039, -0.7633 0.2262 0.0039, -0.7601 0.2297 0.0039, -0.7568 0.2319 0.0039, -0.7411 0.1654 0.0039, -0.7412 0.2313 0.0039, -0.7411 0.2304 0.0039, -0.7691 0.1986 0.0, -0.7681 0.184 0.0, -0.766 0.1754 0.0, -0.7635 0.1707 0.0, -0.7603 0.1672 0.0, -0.756 0.1642 0.0, -0.7515 0.1624 0.0, -0.746 0.1618 0.0, -0.745 0.1618 0.0, -0.7433 0.1623 0.0, -0.7423 0.1628 0.0, -0.7418 0.1632 0.0, -0.7415 0.1638 0.0, -0.7412 0.1645 0.0, -0.7411 0.1654 0.0, -0.7411 0.2304 0.0, -0.7412 0.2313 0.0, -0.7414 0.2319 0.0, -0.7418 0.2325 0.0, -0.7424 0.233 0.0, -0.7432 0.2334 0.0, -0.7447 0.2339 0.0, -0.7473 0.2341 0.0, -0.7528 0.2334 0.0, -0.7568 0.2319 0.0, -0.7601 0.2297 0.0, -0.7633 0.2262 0.0, -0.7657 0.2218 0.0, -0.7681 0.2131 0.0, -0.8236 0.1681 0.0039, -0.8191 0.1877 0.0039, -0.8236 0.1681 0.0, -0.8191 0.1877 0.0, -0.7986 0.1877 0.0039, -0.7986 0.1877 0.0, -0.7945 0.1708 0.0039, -0.7945 0.1708 0.0, -0.7941 0.1673 0.0039, -0.7941 0.1673 0.0, -0.7942 0.1691 0.0, -0.7942 0.1691 0.0039, -0.7986 0.1618 0.0039, -0.7986 0.1618 0.0, -0.798 0.1618 0.0, -0.798 0.1618 0.0039, -0.7966 0.162 0.0, -0.7966 0.162 0.0039, -0.7958 0.1624 0.0, -0.7958 0.1624 0.0039, -0.7954 0.1627 0.0, -0.7954 0.1627 0.0039, -0.795 0.1631 0.0, -0.795 0.1631 0.0039, -0.7946 0.1639 0.0, -0.7946 0.1639 0.0039, -0.7943 0.1652 0.0, -0.7943 0.1652 0.0039, -0.8 0.1618 0.0039, -0.8 0.1618 0.0, -0.8 0.1586 0.0039, -0.8 0.1586 0.0, -0.7831 0.1586 0.0039, -0.7831 0.1586 0.0, -0.7831 0.1618 0.0039, -0.7831 0.1618 0.0, -0.7845 0.1618 0.0039, -0.7845 0.1618 0.0, -0.7895 0.1667 0.0039, -0.7895 0.1667 0.0, -0.789 0.1648 0.0, -0.789 0.1648 0.0039, -0.7885 0.1638 0.0, -0.7885 0.1638 0.0039, -0.7878 0.163 0.0, -0.7878 0.163 0.0039, -0.7869 0.1624 0.0, -0.7869 0.1624 0.0039, -0.7858 0.1619 0.0, -0.7858 0.1619 0.0039, -0.8072 0.2373 0.0039, -0.8072 0.2373 0.0, -0.8107 0.2378 0.0, -0.8141 0.2384 0.0039, -0.8141 0.2384 0.0, -0.8142 0.2378 0.0, -0.8313 0.1668 0.0039, -0.8313 0.1668 0.0, -0.8368 0.1618 0.0039, -0.8368 0.1618 0.0, -0.8361 0.1618 0.0, -0.8361 0.1618 0.0039, -0.8351 0.1621 0.0, -0.8351 0.1621 0.0039, -0.8341 0.1626 0.0, -0.8341 0.1626 0.0039, -0.8332 0.1633 0.0, -0.8332 0.1633 0.0039, -0.8323 0.1646 0.0, -0.8323 0.1646 0.0039, -0.8382 0.1618 0.0039, -0.8382 0.1618 0.0, -0.8382 0.1586 0.0039, -0.8382 0.1586 0.0, -0.8186 0.1586 0.0039, -0.8186 0.1586 0.0, -0.8186 0.1618 0.0039, -0.8186 0.1618 0.0, -0.8204 0.1618 0.0039, -0.8204 0.1618 0.0, -0.8241 0.165 0.0039, -0.8241 0.165 0.0, -0.8239 0.1638 0.0, -0.8239 0.1638 0.0039, -0.8237 0.1631 0.0, -0.8237 0.1631 0.0039, -0.8234 0.1627 0.0, -0.8234 0.1627 0.0039, -0.8232 0.1624 0.0, -0.8232 0.1624 0.0039, -0.8229 0.1622 0.0, -0.8229 0.1622 0.0039, -0.8223 0.162 0.0, -0.8223 0.162 0.0039, -0.8215 0.1618 0.0, -0.8215 0.1618 0.0039, -0.8239 0.1666 0.0, -0.8239 0.1666 0.0039, -0.8186 0.1909 0.0039, -0.7995 0.1909 0.0039, -0.8091 0.2296 0.0039, -0.8095 0.2296 0.0039, -0.8186 0.1909 0.0, -0.8095 0.2296 0.0, -0.7995 0.1909 0.0, -0.8091 0.2296 0.0
            ]
        }
        coordIndex [
            0,1,2,-1,2,1,3,-1,4,5,0,-1,0,5,1,-1,6,7,3,-1,3,7,2,-1,7,6,4,-1,4,6,5,-1,8,9,10,-1,10,9,11,-1,12,13,8,-1,8,13,9,-1,14,15,11,-1,11,15,10,-1,15,14,12,-1,12,14,13,-1,16,17,18,-1,18,17,19,-1,20,21,16,-1,16,21,17,-1,22,23,19,-1,19,23,18,-1,23,22,20,-1,20,22,21,-1,24,25,26,-1,26,25,27,-1,28,29,24,-1,24,29,25,-1,30,31,27,-1,27,31,26,-1,31,30,28,-1,28,30,29,-1,32,33,34,-1,34,33,35,-1,36,37,32,-1,32,37,33,-1,38,39,35,-1,35,39,34,-1,39,38,36,-1,36,38,37,-1,40,41,42,-1,42,41,43,-1,44,45,40,-1,40,45,41,-1,46,47,43,-1,43,47,42,-1,47,46,44,-1,44,46,45,-1,48,49,50,-1,50,49,51,-1,52,53,54,-1,52,54,55,-1,55,54,56,-1,55,56,57,-1,57,56,58,-1,57,58,59,-1,59,58,60,-1,59,60,61,-1,61,60,62,-1,61,62,63,-1,63,62,64,-1,63,64,65,-1,65,64,66,-1,65,66,67,-1,67,66,51,-1,67,51,49,-1,52,68,53,-1,53,68,69,-1,70,71,72,-1,70,72,73,-1,73,72,74,-1,73,74,75,-1,75,74,76,-1,75,76,77,-1,77,76,78,-1,77,78,79,-1,79,78,80,-1,79,80,81,-1,81,80,69,-1,81,69,68,-1,70,82,71,-1,71,82,83,-1,82,84,83,-1,83,84,85,-1,84,86,85,-1,85,86,87,-1,86,88,87,-1,87,88,89,-1,88,90,89,-1,89,90,91,-1,92,93,94,-1,92,94,95,-1,95,94,96,-1,95,96,97,-1,97,96,98,-1,97,98,99,-1,99,98,100,-1,99,100,101,-1,101,100,102,-1,101,102,103,-1,103,102,104,-1,103,104,105,-1,105,104,106,-1,105,106,107,-1,107,106,91,-1,107,91,90,-1,92,108,93,-1,93,108,109,-1,110,111,112,-1,110,112,113,-1,113,112,114,-1,113,114,115,-1,115,114,116,-1,115,116,117,-1,117,116,118,-1,117,118,119,-1,119,118,120,-1,119,120,121,-1,121,120,122,-1,121,122,123,-1,123,122,109,-1,123,109,108,-1,110,124,111,-1,111,124,125,-1,124,126,125,-1,125,126,127,-1,126,128,127,-1,127,128,129,-1,128,130,129,-1,129,130,131,-1,130,132,131,-1,131,132,133,-1,48,50,134,-1,48,134,135,-1,135,134,136,-1,135,136,137,-1,137,136,138,-1,137,138,139,-1,139,138,140,-1,139,140,141,-1,141,140,142,-1,141,142,143,-1,143,142,144,-1,143,144,145,-1,145,144,133,-1,145,133,132,-1,132,130,128,-1,90,88,86,-1,115,128,113,-1,113,128,126,-1,113,126,110,-1,110,126,124,-1,75,77,84,-1,84,77,79,-1,84,79,81,-1,57,59,86,-1,86,59,61,-1,86,61,63,-1,139,115,117,-1,75,84,73,-1,73,84,82,-1,73,82,70,-1,81,68,84,-1,84,68,52,-1,84,52,86,-1,86,52,55,-1,86,55,57,-1,63,99,101,-1,101,103,63,-1,63,103,105,-1,63,105,86,-1,86,105,107,-1,86,107,90,-1,139,141,115,-1,115,141,143,-1,115,143,128,-1,128,143,145,-1,128,145,132,-1,117,119,139,-1,139,119,121,-1,139,121,137,-1,99,63,97,-1,97,63,65,-1,97,65,67,-1,137,121,135,-1,135,121,123,-1,135,123,48,-1,48,123,108,-1,48,108,49,-1,49,108,92,-1,49,92,67,-1,67,92,95,-1,67,95,97,-1,146,147,148,-1,146,148,149,-1,149,148,150,-1,149,150,151,-1,151,150,152,-1,151,152,153,-1,153,152,154,-1,153,154,155,-1,155,154,156,-1,155,156,157,-1,157,156,158,-1,157,158,159,-1,160,161,162,-1,160,162,163,-1,163,162,164,-1,163,164,165,-1,165,164,166,-1,165,166,167,-1,167,166,168,-1,167,168,169,-1,169,168,170,-1,169,170,171,-1,171,170,172,-1,171,172,173,-1,173,172,147,-1,173,147,146,-1,174,175,176,-1,174,176,177,-1,177,176,178,-1,177,178,179,-1,178,180,179,-1,179,180,181,-1,179,181,182,-1,182,181,183,-1,182,183,184,-1,184,183,185,-1,184,185,186,-1,186,185,187,-1,186,187,188,-1,188,187,161,-1,188,161,160,-1,175,174,189,-1,190,191,192,-1,190,192,189,-1,189,192,193,-1,189,193,175,-1,194,195,196,-1,194,196,197,-1,197,196,191,-1,197,191,190,-1,198,199,200,-1,201,202,200,-1,200,202,203,-1,200,203,198,-1,201,204,202,-1,202,204,205,-1,202,205,206,-1,206,205,207,-1,206,207,208,-1,208,207,195,-1,208,195,194,-1,199,198,209,-1,209,198,210,-1,209,210,211,-1,210,212,211,-1,211,212,213,-1,214,215,216,-1,214,216,217,-1,217,216,218,-1,217,218,219,-1,219,218,220,-1,219,220,221,-1,221,220,222,-1,221,222,223,-1,223,222,224,-1,223,224,225,-1,225,224,213,-1,225,213,212,-1,226,227,228,-1,226,228,229,-1,229,228,230,-1,229,230,231,-1,231,230,232,-1,231,232,233,-1,233,232,234,-1,233,234,235,-1,235,234,236,-1,235,236,237,-1,237,236,238,-1,237,238,239,-1,239,238,240,-1,239,240,241,-1,241,240,215,-1,241,215,214,-1,242,243,244,-1,242,244,245,-1,245,244,246,-1,245,246,247,-1,247,246,248,-1,247,248,249,-1,249,248,250,-1,249,250,251,-1,251,250,252,-1,251,252,253,-1,253,252,254,-1,253,254,255,-1,255,254,256,-1,255,256,257,-1,257,256,227,-1,257,227,226,-1,258,259,260,-1,258,260,261,-1,261,260,262,-1,261,262,263,-1,263,262,264,-1,263,264,265,-1,265,264,266,-1,265,266,267,-1,267,266,268,-1,267,268,269,-1,269,268,243,-1,269,243,242,-1,258,159,259,-1,259,159,158,-1,157,159,258,-1,212,210,225,-1,225,210,198,-1,225,198,223,-1,223,198,203,-1,223,203,202,-1,202,206,223,-1,223,206,208,-1,223,208,221,-1,231,233,184,-1,184,233,182,-1,258,261,157,-1,157,261,263,-1,157,263,155,-1,155,263,265,-1,155,265,153,-1,153,265,267,-1,153,267,151,-1,151,267,269,-1,151,269,149,-1,149,269,242,-1,149,242,146,-1,146,242,245,-1,146,245,173,-1,173,245,247,-1,173,247,171,-1,171,247,249,-1,171,249,169,-1,249,251,169,-1,169,251,253,-1,169,253,167,-1,167,253,255,-1,167,255,165,-1,165,255,257,-1,165,257,163,-1,163,257,160,-1,208,194,221,-1,221,194,197,-1,221,197,219,-1,219,197,190,-1,219,190,217,-1,217,190,189,-1,217,189,214,-1,214,189,174,-1,214,174,241,-1,241,174,177,-1,241,177,239,-1,239,177,179,-1,239,179,237,-1,237,179,182,-1,237,182,235,-1,235,182,233,-1,257,226,160,-1,160,226,229,-1,160,229,188,-1,188,229,231,-1,188,231,186,-1,186,231,184,-1,270,271,272,-1,272,271,273,-1,271,274,273,-1,273,274,275,-1,274,276,275,-1,275,276,277,-1,276,278,277,-1,277,278,279,-1,278,280,279,-1,279,280,281,-1,282,283,284,-1,282,284,285,-1,285,284,286,-1,285,286,287,-1,287,286,288,-1,287,288,289,-1,289,288,290,-1,289,290,291,-1,291,290,281,-1,291,281,280,-1,282,292,283,-1,283,292,293,-1,294,295,296,-1,294,296,297,-1,297,296,298,-1,297,298,299,-1,299,298,300,-1,299,300,301,-1,301,300,302,-1,301,302,303,-1,303,302,304,-1,303,304,305,-1,305,304,306,-1,305,306,307,-1,307,306,293,-1,307,293,292,-1,294,308,295,-1,295,308,309,-1,308,310,309,-1,309,310,311,-1,312,313,314,-1,312,314,315,-1,315,314,316,-1,315,316,317,-1,317,316,318,-1,317,318,319,-1,319,318,320,-1,319,320,321,-1,321,320,322,-1,321,322,323,-1,323,322,324,-1,323,324,325,-1,325,324,326,-1,325,326,327,-1,327,326,311,-1,327,311,310,-1,312,328,313,-1,313,328,329,-1,328,330,329,-1,329,330,331,-1,330,332,331,-1,331,332,333,-1,332,334,333,-1,333,334,335,-1,334,336,335,-1,335,336,337,-1,338,339,340,-1,338,340,341,-1,341,340,342,-1,341,342,343,-1,343,342,344,-1,343,344,345,-1,345,344,346,-1,345,346,347,-1,347,346,348,-1,347,348,349,-1,349,348,350,-1,349,350,351,-1,351,350,337,-1,351,337,336,-1,338,352,339,-1,339,352,353,-1,352,354,353,-1,353,354,355,-1,356,357,358,-1,356,358,359,-1,359,358,360,-1,359,360,361,-1,361,360,362,-1,361,362,363,-1,363,362,364,-1,363,364,365,-1,365,364,366,-1,365,366,367,-1,367,366,368,-1,367,368,369,-1,369,368,370,-1,369,370,371,-1,371,370,355,-1,371,355,354,-1,356,372,357,-1,357,372,373,-1,374,375,376,-1,374,376,377,-1,377,376,378,-1,377,378,379,-1,379,378,380,-1,379,380,381,-1,381,380,382,-1,381,382,383,-1,383,382,384,-1,383,384,385,-1,385,384,373,-1,385,373,372,-1,374,386,375,-1,375,386,387,-1,386,388,387,-1,387,388,389,-1,388,390,389,-1,389,390,391,-1,390,392,391,-1,391,392,393,-1,392,394,393,-1,393,394,395,-1,396,397,398,-1,396,398,399,-1,399,398,400,-1,399,400,401,-1,401,400,402,-1,401,402,403,-1,403,402,404,-1,403,404,405,-1,405,404,406,-1,405,406,407,-1,407,406,408,-1,407,408,409,-1,409,408,410,-1,409,410,411,-1,411,410,395,-1,411,395,394,-1,396,412,397,-1,397,412,413,-1,270,272,414,-1,270,414,415,-1,415,414,416,-1,415,416,417,-1,417,416,418,-1,417,418,419,-1,419,418,420,-1,419,420,421,-1,421,420,422,-1,421,422,423,-1,423,422,424,-1,423,424,425,-1,425,424,413,-1,425,413,412,-1,336,334,332,-1,386,374,388,-1,388,374,377,-1,388,377,379,-1,401,403,367,-1,367,403,405,-1,367,405,407,-1,409,411,390,-1,390,411,394,-1,390,394,392,-1,379,381,388,-1,388,381,383,-1,388,383,385,-1,390,361,363,-1,319,343,345,-1,274,271,270,-1,270,415,274,-1,274,415,417,-1,274,417,299,-1,285,287,276,-1,407,409,367,-1,367,409,390,-1,367,390,365,-1,365,390,363,-1,330,328,312,-1,312,315,330,-1,330,315,317,-1,330,317,332,-1,332,317,319,-1,319,321,343,-1,343,321,323,-1,343,323,341,-1,417,419,299,-1,299,419,421,-1,299,421,423,-1,280,278,291,-1,291,278,276,-1,291,276,289,-1,289,276,287,-1,367,369,401,-1,401,369,371,-1,401,371,399,-1,399,371,396,-1,299,301,274,-1,274,301,303,-1,274,303,305,-1,385,372,388,-1,388,372,356,-1,388,356,390,-1,390,356,359,-1,390,359,361,-1,371,354,396,-1,396,354,352,-1,396,352,412,-1,412,352,425,-1,345,347,319,-1,319,347,349,-1,319,349,332,-1,332,349,351,-1,332,351,336,-1,323,325,341,-1,341,325,327,-1,341,327,338,-1,338,327,310,-1,338,310,352,-1,352,310,308,-1,352,308,425,-1,425,308,294,-1,425,294,423,-1,423,294,297,-1,423,297,299,-1,305,307,274,-1,274,307,292,-1,274,292,276,-1,276,292,282,-1,276,282,285,-1,426,427,428,-1,428,427,429,-1,430,431,432,-1,430,432,433,-1,433,432,434,-1,433,434,435,-1,435,434,436,-1,435,436,437,-1,437,436,438,-1,437,438,439,-1,439,438,440,-1,439,440,441,-1,441,440,442,-1,441,442,443,-1,443,442,429,-1,443,429,427,-1,430,444,431,-1,431,444,445,-1,444,446,445,-1,445,446,447,-1,446,448,447,-1,447,448,449,-1,450,451,452,-1,450,452,453,-1,453,452,454,-1,453,454,455,-1,455,454,456,-1,455,456,457,-1,457,456,458,-1,457,458,459,-1,459,458,460,-1,459,460,461,-1,461,460,462,-1,461,462,463,-1,463,462,449,-1,463,449,448,-1,464,465,466,-1,464,466,467,-1,467,466,468,-1,467,468,469,-1,469,468,470,-1,469,470,471,-1,471,470,472,-1,471,472,473,-1,473,472,474,-1,473,474,475,-1,475,474,476,-1,475,476,477,-1,477,476,478,-1,477,478,479,-1,479,478,451,-1,479,451,450,-1,464,480,465,-1,465,480,481,-1,480,482,481,-1,481,482,483,-1,482,484,483,-1,483,484,485,-1,426,428,486,-1,426,486,487,-1,487,486,488,-1,487,488,489,-1,489,488,490,-1,489,490,491,-1,491,490,492,-1,491,492,493,-1,493,492,494,-1,493,494,495,-1,495,494,496,-1,495,496,497,-1,497,496,498,-1,497,498,499,-1,499,498,485,-1,499,485,484,-1,484,482,480,-1,500,501,450,-1,450,501,479,-1,479,501,502,-1,479,502,477,-1,477,502,503,-1,477,503,475,-1,475,503,473,-1,473,503,504,-1,473,504,471,-1,471,504,505,-1,471,505,469,-1,493,464,491,-1,491,464,506,-1,491,506,507,-1,507,508,491,-1,491,508,509,-1,491,509,510,-1,493,495,464,-1,464,495,497,-1,464,497,480,-1,480,497,499,-1,480,499,484,-1,446,511,512,-1,505,513,469,-1,469,513,514,-1,469,514,467,-1,467,514,515,-1,467,515,464,-1,464,515,516,-1,464,516,506,-1,446,444,430,-1,430,433,446,-1,446,433,435,-1,446,435,511,-1,511,435,437,-1,512,517,446,-1,446,517,518,-1,446,518,448,-1,518,519,448,-1,448,519,520,-1,448,520,463,-1,463,520,521,-1,463,521,461,-1,450,453,500,-1,500,453,455,-1,500,455,522,-1,522,455,457,-1,522,457,523,-1,523,457,459,-1,523,459,524,-1,524,459,461,-1,524,461,525,-1,525,461,521,-1,526,487,510,-1,510,487,489,-1,510,489,491,-1,437,439,511,-1,511,439,441,-1,511,441,527,-1,527,441,443,-1,527,443,528,-1,528,443,427,-1,528,427,526,-1,526,427,426,-1,526,426,487,-1,501,529,530,-1,501,530,502,-1,502,530,531,-1,502,531,503,-1,503,531,532,-1,503,532,504,-1,504,532,533,-1,504,533,505,-1,505,533,534,-1,505,534,513,-1,513,534,535,-1,513,535,514,-1,514,535,536,-1,514,536,515,-1,515,536,537,-1,515,537,516,-1,516,537,538,-1,516,538,506,-1,506,538,539,-1,506,539,507,-1,507,539,540,-1,507,540,508,-1,508,540,541,-1,508,541,509,-1,509,541,542,-1,509,542,510,-1,510,542,543,-1,510,543,526,-1,528,526,544,-1,544,526,543,-1,528,544,545,-1,528,545,527,-1,527,545,546,-1,527,546,511,-1,511,546,547,-1,511,547,512,-1,512,547,548,-1,512,548,517,-1,517,548,549,-1,517,549,518,-1,518,549,550,-1,518,550,519,-1,519,550,551,-1,519,551,520,-1,520,551,552,-1,520,552,521,-1,521,552,553,-1,521,553,525,-1,525,553,554,-1,525,554,524,-1,524,554,555,-1,524,555,523,-1,523,555,556,-1,523,556,522,-1,522,556,557,-1,522,557,500,-1,500,557,529,-1,500,529,501,-1,544,554,553,-1,536,535,543,-1,543,535,534,-1,543,534,533,-1,553,552,544,-1,544,552,551,-1,544,551,550,-1,543,530,544,-1,544,530,529,-1,544,529,557,-1,536,543,537,-1,537,543,542,-1,537,542,541,-1,533,532,543,-1,543,532,531,-1,543,531,530,-1,557,556,544,-1,544,556,555,-1,544,555,554,-1,541,540,537,-1,537,540,539,-1,537,539,538,-1,550,549,544,-1,544,549,548,-1,544,548,545,-1,545,548,547,-1,545,547,546,-1,558,559,560,-1,560,559,561,-1,559,562,561,-1,561,562,563,-1,562,564,563,-1,563,564,565,-1,566,567,568,-1,566,568,569,-1,569,568,565,-1,569,565,564,-1,570,571,572,-1,570,572,573,-1,573,572,574,-1,573,574,575,-1,575,574,576,-1,575,576,577,-1,577,576,578,-1,577,578,579,-1,579,578,580,-1,579,580,581,-1,581,580,582,-1,581,582,583,-1,583,582,584,-1,583,584,585,-1,585,584,567,-1,585,567,566,-1,570,586,571,-1,571,586,587,-1,586,588,587,-1,587,588,589,-1,588,590,589,-1,589,590,591,-1,590,592,591,-1,591,592,593,-1,592,594,593,-1,593,594,595,-1,596,597,598,-1,596,598,599,-1,599,598,600,-1,599,600,601,-1,601,600,602,-1,601,602,603,-1,603,602,604,-1,603,604,605,-1,605,604,606,-1,605,606,607,-1,607,606,595,-1,607,595,594,-1,596,608,597,-1,597,608,609,-1,609,608,610,-1,610,608,611,-1,610,611,612,-1,612,611,613,-1,613,611,614,-1,613,614,615,-1,616,617,618,-1,616,618,619,-1,619,618,620,-1,619,620,621,-1,621,620,622,-1,621,622,623,-1,623,622,624,-1,623,624,625,-1,625,624,626,-1,625,626,627,-1,627,626,615,-1,627,615,614,-1,616,628,617,-1,617,628,629,-1,628,630,629,-1,629,630,631,-1,630,632,631,-1,631,632,633,-1,632,634,633,-1,633,634,635,-1,634,636,635,-1,635,636,637,-1,638,639,640,-1,638,640,641,-1,641,640,642,-1,641,642,643,-1,643,642,644,-1,643,644,645,-1,645,644,646,-1,645,646,647,-1,647,646,648,-1,647,648,649,-1,649,648,650,-1,649,650,651,-1,651,650,652,-1,651,652,653,-1,653,652,637,-1,653,637,636,-1,558,560,654,-1,558,654,655,-1,655,654,639,-1,655,639,638,-1,594,592,590,-1,623,625,632,-1,611,656,614,-1,614,656,627,-1,643,645,625,-1,628,616,630,-1,630,616,619,-1,630,619,632,-1,632,619,621,-1,632,621,623,-1,655,638,627,-1,651,632,649,-1,649,632,625,-1,649,625,647,-1,647,625,645,-1,588,586,570,-1,570,573,588,-1,588,573,575,-1,588,575,590,-1,590,575,577,-1,590,577,579,-1,599,601,581,-1,581,601,603,-1,581,603,579,-1,579,603,605,-1,579,605,590,-1,590,605,607,-1,590,607,594,-1,651,653,632,-1,632,653,636,-1,632,636,634,-1,627,638,625,-1,625,638,641,-1,625,641,643,-1,657,562,656,-1,656,562,559,-1,656,559,627,-1,627,559,558,-1,627,558,655,-1,581,583,599,-1,599,583,585,-1,599,585,596,-1,585,566,596,-1,596,566,569,-1,596,569,564,-1,564,562,596,-1,596,562,657,-1,596,657,608,-1,608,657,658,-1,608,658,611,-1,611,658,659,-1,611,659,656,-1,656,659,660,-1,660,659,661,-1,657,656,662,-1,662,656,660,-1,658,657,663,-1,663,657,662,-1,659,658,661,-1,661,658,663,-1,663,662,661,-1,661,662,660,-1,
        ]
    }
}